<svg id="Layer_1" data-name="Layer 1" width="500" height="500" xmlns="http://www.w3.org/2000/svg" viewBox="0 0 300 300">
  <defs>
    <style>
      .cls-1 {
        fill: #dcb227;
        stroke-width: 0px;
      }
    </style>
  </defs>
  <path class="cls-1" d="M58.72,163.04v-51.87c0-1.09.93-1.97,2.08-1.97s2.08.88,2.08,1.97v51.87c0,1.09-.93,1.97-2.08,1.97s-2.08-.88-2.08-1.97Z"/>
  <path class="cls-1" d="M68.58,128.32v-17.4c0-1.09.93-1.97,2.08-1.97s2.08.88,2.08,1.97v11.56l10.25-12.75c.7-.87,2-1.03,2.92-.37.91.66,1.09,1.9.39,2.77l-13.99,17.4c-.54.67-1.47.94-2.32.67-.85-.27-1.42-1.02-1.42-1.87Z"/>
  <path class="cls-1" d="M68.58,163.04v-17.4c0-.85.57-1.6,1.42-1.87.85-.27,1.78,0,2.32.67l13.99,17.4c.7.87.52,2.1-.39,2.77-.91.66-2.22.49-2.92-.37l-10.25-12.75v11.56c0,1.09-.93,1.97-2.08,1.97s-2.08-.88-2.08-1.97Z"/>
  <path class="cls-1" d="M74.58,137.1c0-.4.13-.81.39-1.15l19.81-26.19c.67-.89,1.97-1.09,2.9-.45.93.64,1.15,1.87.48,2.75l-18.94,25.04,18.94,25.04c.67.89.46,2.12-.48,2.75-.93.63-2.23.43-2.9-.45l-19.81-26.19c-.26-.34-.39-.75-.39-1.15Z"/>
</svg>