<svg xmlns="http://www.w3.org/2000/svg" xmlns:xlink="http://www.w3.org/1999/xlink" version="1.1" id="Layer_1" x="0px" y="0px" viewBox="0 0 23.8 23.8" style="enable-background:new 0 0 23.8 23.8;" xml:space="preserve">
<style type="text/css">
	.st0{fill:white;}
</style>
<g>
	<path class="st0" d="M16.9,1.7c-0.8-0.1-1.5-0.2-2.2-0.2c-1.7-0.1-3.3,0.2-4.4,1.9c-0.6,0.9-0.8,2-0.8,3.2c0,1,0,1.9,0,2.9   c-1.1,0-2.1,0-3,0c0,1.3,0,2.5,0,3.8c1,0,2,0,3.1,0c0,3.1,0,6.1,0,9.1c1.3,0,2.6,0,3.9,0c0-3,0-6,0-9.1c1,0,1.9,0,2.9,0   c0.2-1.3,0.4-2.5,0.5-3.8c-1.2,0-2.2,0-3.4,0c0-1-0.1-1.9,0-2.8c0.1-0.9,0.6-1.4,1.5-1.6c0.6-0.1,1.3-0.1,2-0.1   C16.9,3.8,16.9,2.8,16.9,1.7z"/>
	<path class="st0" d="M16.9,1.7c0,1.1,0,2.1,0,3.2c-0.7,0-1.3,0.1-2,0.1c-0.9,0.1-1.5,0.6-1.5,1.6c-0.1,0.9,0,1.8,0,2.8   c1.1,0,2.2,0,3.4,0c-0.2,1.3-0.4,2.5-0.5,3.8c-0.9,0-1.8,0-2.9,0c0,3.1,0,6,0,9.1c-1.3,0-2.6,0-3.9,0c0-3,0-6,0-9.1   c-1.1,0-2,0-3.1,0c0-1.3,0-2.5,0-3.8c1,0,2,0,3,0c0-1,0-2,0-2.9c0-1.1,0.2-2.2,0.8-3.2c1.1-1.6,2.7-1.9,4.4-1.9   C15.4,1.5,16.1,1.6,16.9,1.7z"/>
</g>
</svg>