<svg xmlns="http://www.w3.org/2000/svg" xmlns:xlink="http://www.w3.org/1999/xlink" version="1.1" id="Layer_1" x="0px" y="0px" viewBox="0 0 40 40" style="enable-background:new 0 0 40 40;" xml:space="preserve">
<style type="text/css">
	.st0{fill:white;}
</style>
<path class="st0" d="M1.5,13.8h7.9v25.4H1.5V13.8z M5.5,1.2c2.5,0,4.6,2.1,4.6,4.6c0,2.5-2,4.6-4.6,4.6c-2.5,0-4.6-2.1-4.6-4.6  C0.9,3.2,3,1.2,5.5,1.2 M14.4,39.2h7.9V26.6c0-3.3,0.6-6.5,4.7-6.5c4,0,4.1,3.8,4.1,6.7v12.3H39V25.3c0-6.8-1.5-12.1-9.5-12.1  c-3.8,0-6.4,2.1-7.5,4.1H22v-3.5h-7.6V39.2z"/>
</svg>